<svg height="286.307722" viewBox="0 0 1003.5 823" width="349.274548" xmlns="http://www.w3.org/2000/svg" xmlns:xlink="http://www.w3.org/1999/xlink"><clipPath id="a"><path d="m138.6 100.7h1003.5v823h-1003.5z"/></clipPath><g clip-path="url(#a)" transform="translate(-138.6 -100.7)"><path d="m915.8 201.5 6.3-87.7-49-3.2 1.2-8.2-74.3 5.9-2.2 10.2-6-9.4-59.7 4.8-2.2 10.9-5.4-10.3-52.4 4.2-5.7-18-94.2 6.3-2.5 15.2c-10-10.4-22.9-16.2-38.5-16.8l-65-2.8-5.1 19.2c-1.3-1.5-2.8-2.7-4.4-4-9.5-7.5-20.6-10.5-33-9l-72.4 9-6.7 65.1 13.2 17.3 8.2 71.8 36.9 33.6 63.5-7.8c5.8-.7 11.1-2.4 15.8-4.8l83.5 3.6-.8 4 63.2-4.2 3.5-16.2 9.3-.6 3.7 15.8 46.8-3.1 4.3 13.4 62.8-5 1.3-7 2.3 6.6 58.4-4.6-.2 2.8 82 5.4 37-33.6 19.4-66.4z"/><path d="m936.2 268.2h-596v91.4h595.9v-91.4z"/><path d="m1099.2 377.3 43-126.7-110.6-29.6-3.9 10.8c-1.2-.1-2.2-.2-3.2-.3l-12.6-.7c-32.1-1.9-59.2 5.9-80.7 23.1-12.5 10-22 22.3-28.5 36.9-15.5-11-33.9-17-54.9-18l-117.9-5.4-10.9 40.7-11.5-45.6h-133.2l.4-1.3-27.9 1.3h-6.9l-.1.3-93.9 4.3-1.5 9.3-66.5 3.7 14.9-55.4-124.8-19.8-2.8 12.2c-1.6 0-2.9.1-4.1.2l-13.2 1c-33.2 2.5-60.3 14.3-80.1 35-21.7 22.5-31.4 51.8-28.8 87.2 1 13.2 3.6 25.3 8.2 36.3l24.1 42.4-21.9 118.7 44 57.4 11 5.4c30 14.5 60 21.9 89.2 21.9 4.4 0 8.7-.2 13.1-.5 33.3-2.5 60.7-14.1 81.6-34.4l.1-.1c9.3-9.3 16.7-19.8 21.9-31.3l2.5 54.8h200l8.9-39h27.5l5.4 39h260.4c16.2 5.9 32.7 9.3 49 10.3 3.2.2 6.5.3 9.6.3 27.9 0 52.3-7.6 72.4-22.5l.1-.1a98.6 98.6 0 0 0 24.1-25.9l34.9-49c1.5-2 3-4.1 4.4-6.2l2-2.7h-.2c10-16.4 15.8-35.8 17.1-57.6 1.7-32.6-8.1-59.5-29.2-80.4z"/><path d="m349.7 516.9c-19.2 18.7-44.5 29.2-76 31.6-32.9 2.4-66.6-4.6-101.1-21.3l16.1-88 38 14.2c15.4 5 28.4 7.1 39.2 6.3 12.4-.9 18.3-6.1 17.6-15.3-.5-7-10.9-13.2-31.3-18.7-26.3-7.1-45.5-14.5-57.4-22.4-21.3-14.4-33-35.9-35-64.4-2.1-29 5.5-52.6 22.8-70.6 16.3-17 38.5-26.6 66.6-28.7l13.2-1c1.7-.1 4.1-.2 7.3-.1s7.2.2 11.9.5l2.2-9.8 82.2 13.1-24 89.6c-8.6-4.4-50-16.6-67.5-13.9-13.2 2-19.6 6.2-18.8 15.4.4 5.8 10.7 11.4 30.8 17 26 7.3 44.8 15.1 56.2 23 21.1 14.8 32.6 36.3 34.7 64.4 2.2 32.2-6.9 58.6-27.7 79.1z" fill="#f01919"/><path d="m527 362.5-55.8 2.4 7.8 160-67.3 3.4-8.2-161-54.6 3.4 13.8-68.3 99.4-5.6 1.4-9.1 83.5-3.8z" fill="#f01919"/><path d="m924.6 383.7c1.2-25.2-5.7-46.2-20.4-62.8-14.5-16.7-33.7-25.5-57.6-26.7l-101.1-4.6-18.6 69 15.5.7-7.4 167.6 70.5 3.3 3.1-70.1 27.2 71.5 84.3 3.9-35.7-78.5c25.4-15.7 38.8-40.1 40.2-73.3z" fill="#f01919"/><path d="m826 358.6-20.6-.6-1.4 46.5 20.6.6c12.6.4 23.1-9.7 23.5-22.5s-9.5-23.5-22.1-24z"/><path d="m1071.4 527.6c-20.4 15.2-45.7 22-75.8 20.1-31.4-1.9-62.4-12.9-93-33.1l26.1-81.2 34.3 18.3c14 6.7 26 10.3 36.3 11 11.9.7 18-3.4 18.6-12.2.4-6.6-8.7-13.9-27.4-21.7-24-10.1-41.2-19.6-51.6-28.6-18.4-16.4-26.8-38.3-25.2-65.5 1.6-27.8 11.6-49.1 30.2-63.9 17.5-14 39.6-20.2 66.6-18.6l12.6.7c1.6.1 3.9.4 6.9.8 3 .5 6.8 1.1 11.2 1.9l3.3-9 70.4 18.9-29.3 89c-7.6-5.2-17.5-10.3-29.7-15.6-13.7-5.8-24.1-9-31.2-9.3-12.6-.7-19.3 3.4-19.7 12.2-.4 5.5 8.7 12.2 27 20.1 23.7 10.3 40.5 20 50.4 28.9 18.1 16.7 26.4 38.5 24.9 65.4-1.7 30.8-13.7 54.6-35.9 71.4z" fill="#f01919"/><path d="m673.9 528-5.9-34.2h-64.3l-9.7 34.2h-78.1l46.6-176.8-21.5-.2 15.4-67.1h134.7l61.4 244.1z" fill="#f01919"/><g fill="#fff"><path d="m447.5 181.3c9.3-7.5 13.2-17.7 11.8-30.4-1.1-9.2-4.8-16.2-11.2-21.4-6.4-5.1-14-7.2-22.5-6.1l-61.1 7.5-3.9 38.1 8.1-1 10.2 89.8 59.6-7.3c9.6-1.2 17.2-5.2 22.8-12.1 6.2-7.2 8.7-15.8 7.6-25.8-.9-8.1-3-14.4-6.4-19.1-2.8-4-7.9-8.1-15-12.2z"/><path d="m569.2 248-18.3-40.5c13.3-8.5 20.4-21.7 21.1-39.5.5-13.5-3.1-24.9-10.8-33.8-7.6-8.9-17.8-13.7-30.5-14.2l-53.4-2.3-9.7 37.2 8.2.4-3.6 90.2 37.2 1.6 1.5-37.7 14.5 38.4 43.4 1.9 1.2.1z"/><path d="m900.4 215.3 6.4-87.8-42.7-2.7-5.3 37.4 8.2.6-6.5 89.2 68.3 4.5 11.4-39z"/><path d="m810.2 122.4-9.3 52-17.3-49.9-37.1 3-9.4 52-17.2-49.9-47.2 3.8 40 124.9 48.8-3.9 9.6-50.6 17.2 48.5 48.7-3.9 20.4-129.8z"/><path d="m655.3 246.7-4.3-18-34.2 2.3-4 18.5-41.6 2.7 18.8-95.8-11.4.6 5.9-36.2 71.7-4.7 41 127.8zm-26.1-88.3-7.4 38.5 18.8-1.3z"/></g><path d="m523.2 156.1-10.5-.4-.7 23.7 10.5.4c6.4.2 11.8-4.9 12-11.5.2-6.5-4.8-12-11.3-12.2z"/><path d="m410.8 159-7.7.8 1.7 17.4 7.7-.8c4.7-.5 8.1-4.8 7.6-9.6-.4-4.7-4.6-8.3-9.3-7.8z"/><path d="m417.9 202.9-9.9 1 2.2 22.2 9.9-1c6-.6 10.4-6.1 9.8-12.2s-5.9-10.5-12-10z"/><path d="m641.5 359.1-19 71.3 35.6.3z"/><path d="m528.9 773.6c34.3 14.2 76 24 120.3 18.8 101.4-12.1 89.1-109.3 89.1-109.3l-27.9 3.4c52.3-43.3 23.1-110.5 23.1-110.5l-204.7 84-.4-.2v114.1c.2-.1.3-.2.5-.3z"/><path d="m741.4 773.6c-34.3 14.2-76 24-120.3 18.8-101.4-12.1-89.1-109.3-89.1-109.3l27.9 3.4c-52.4-43.3-23.1-110.5-23.1-110.5l204.6 84 .4-.2v114.1c-.2-.1-.3-.2-.4-.3z"/><path d="m848.4 677.4c9.3-16.2 13.9-34.9 13.2-55.6-.9-24.5-8.9-43.2-9.2-44-2.8-6.6-10.3-9.7-16.9-7l-199.9 82-.4-.2v14.5l.4.2 204.8-84.1s29.2 67.2-23.1 110.5l27.9-3.4s12.3 97.4-89.1 109.3c-44.4 5.3-86-4.6-120.3-18.8-.2.1-.4.1-.4.2v14.4c.2-.1.4-.1.4-.2 32.6 12.8 64.7 19.2 95.8 19.2 8.8 0 17.4-.5 26-1.5 34.7-4.1 61.1-17.9 78.7-40.8 27.6-36.1 22.2-81.7 22-83.6-.9-5.4-4.8-9.9-9.9-11.1z"/><path d="m635.6 781c34.3 14.2 76 24 120.3 18.8 101.5-12.1 89.2-109.4 89.2-109.4l-27.9 3.4c52.4-43.3 23.1-110.5 23.1-110.5l-204.8 84.1-.4-.2v114.1c.2-.2.3-.3.5-.3z" fill="#fff"/><path d="m421.8 677.4c-9.3-16.2-13.9-34.9-13.2-55.6.9-24.5 8.9-43.2 9.2-44 2.8-6.6 10.3-9.7 16.9-7l199.9 82 .4-.2v14.5l-.4.2-204.8-84.1s-29.2 67.2 23.1 110.5l-27.9-3.4s-12.3 97.4 89.1 109.3c44.4 5.3 86-4.6 120.3-18.8.2.1.4.1.4.2v14.4c-.2-.1-.4-.1-.4-.2-32.6 12.8-64.7 19.2-95.8 19.2-8.8 0-17.4-.5-26-1.5-34.7-4.1-61.1-17.9-78.7-40.8-27.6-36.1-22.2-81.7-22-83.6.9-5.4 4.9-9.9 9.9-11.1z"/><path d="m634.6 781c-34.3 14.2-76 24-120.3 18.8-101.4-12.1-89.1-109.3-89.1-109.3l27.9 3.4c-52.4-43.3-23.1-110.5-23.1-110.5l204.8 84.1.4-.2v114.1c-.2-.3-.4-.4-.6-.4z" fill="#fff"/><path d="m758.3 750 24.9-86.8-86.7-21.3-61.7-65.2-61.4 65.3-86.6 21.6 25.1 86.7-24.9 86.9 86.7 21.3 61.7 65.2 61.6-65.4 86.6-21.5z"/><path d="m803.2 781.4-24.8-85.8 24.6-85.9 4.3-15.2-15-3.6-85.8-21.1-61.1-64.6-10.6-11.3-10.7 11.3-60.9 64.8-85.7 21.3-15 3.8 4.4 15.2 24.9 85.7-24.6 85.9-4.4 15.2 15 3.7 85.8 21 61.1 64.6 10.7 11.2 10.6-11.2 60.9-64.8 85.8-21.3 15-3.7z"/><path d="m763 695.6 25.8-90.1-89.8-22.1-64.1-67.8-63.9 68-89.9 22.4 26 90-25.8 90.1 89.9 22.1 64 67.8 63.9-68 89.9-22.3z" fill="#ffb921"/><path d="m788.8 605.5-89.8-22.1-64.1-67.8.3 180.2z" fill="#ffe35b"/><path d="m635.1 695.8 153.9 89.9-26-90.1 25.8-90.1z" fill="#ffb921"/><path d="m635.1 695.8-.3-180.2-63.9 68-89.8 22.4z" fill="#fff"/><path d="m635.3 876 63.9-68 89.9-22.3-153.9-89.9z" fill="#c95e40"/><path d="m481.4 786.1 153.8-90.3-154-89.8 26 90z" fill="#ffe35b"/><path d="m635.1 695.8-153.8 90.3 89.9 22.1 64 67.8z" fill="#ffb921"/><path d="m635.1 805.4c59.8 0 108.3-49.4 108.3-110.4s-48.5-110.4-108.3-110.4-108.3 49.4-108.3 110.4 48.5 110.4 108.3 110.4z"/><path d="m635.1 783.5c48 0 86.9-39.7 86.9-88.6s-38.9-88.6-86.9-88.6-86.9 39.7-86.9 88.6c0 49 38.9 88.6 86.9 88.6z"/><path d="m526.8 695c.9 14.4 4.2 28.6 10 41.6 2.8 6.4 6.3 12.6 10.4 18.4 4 5.7 8.5 11.2 13.5 16 19.9 19.5 47 30.7 74.4 30.5 27.4.2 54.6-11 74.4-30.5 5-4.8 9.5-10.3 13.5-16s7.5-11.9 10.4-18.4c5.9-12.9 9.2-27 10-41.6.9 14.5-1.4 29.2-6.5 43-2.6 6.9-5.8 13.5-9.7 19.8-3.8 6.3-8.4 12.1-13.4 17.5l-3.9 3.9c-1.3 1.3-2.7 2.5-4.1 3.7s-2.8 2.4-4.3 3.5-2.9 2.2-4.4 3.3c-6 4.2-12.4 7.8-19.2 10.8-13.5 5.8-28.2 8.8-42.8 8.9-14.7-.1-29.3-3-42.8-8.9a109.68 109.68 0 0 1 -49.3-42.6c-3.8-6.3-7.1-12.9-9.7-19.8-5.1-13.9-7.4-28.7-6.5-43.1z" fill="#ffe35b"/><path d="m635.1 602.9c-49.7 0-90 42.9-90 88.1 0 29.7 17.5 52.9 43.6 65.3v10.4c0 5.6 4.4 10.2 10 10.2h72.9c5.5 0 10-4.5 10-10.2v-10.4c26.1-12.4 43.6-35.6 43.6-65.3 0-45.1-40.4-88.1-90.1-88.1zm6.9 78.5 11.6-11.8c2.4-2.4 6.4-2.4 8.8 0s2.4 6.5 0 9l-11.6 11.8a5.91 5.91 0 0 1 -4.4 1.9c-1.6 0-3.2-.6-4.4-1.9a6.34 6.34 0 0 1 0-9zm-33.3-11.8c2.4-2.4 6.4-2.4 8.8 0l11.6 11.8c2.4 2.5 2.4 6.5 0 9a5.91 5.91 0 0 1 -4.4 1.9c-1.6 0-3.2-.6-4.4-1.9l-11.6-11.8a6.52 6.52 0 0 1 0-9zm-13.4 67.9c-14.5 0-26.2-12.4-26.2-27.7 0-15.2 11.7-27.7 26.2-27.7s26.2 12.4 26.2 27.7-11.7 27.7-26.2 27.7zm26.2 4.7 14-23 13.1 23c0 .1-27.1.1-27.1 0zm55.4-4.7c-14.5 0-26.2-12.4-26.2-27.7 0-15.2 11.7-27.7 26.2-27.7s26.2 12.4 26.2 27.7-11.7 27.7-26.2 27.7z" fill="#ffbf21"/><path d="m623.9 626.5c-6.2-10-23.4-10.3-38.3-.7s-22 25.6-15.7 35.6c6.2 10 23.4 10.3 38.3.7 14.9-9.8 22-25.6 15.7-35.6z" fill="#fff"/></g></svg>