<svg xmlns="http://www.w3.org/2000/svg" id="EA_FC26" viewBox="0 0 793.03 197.71">
  <g id="EA_Sports_FC26">
    <path id="EA_Sports" d="M115.53,118.82c.34.41.51.94.51,1.57v3.29c0,.64-.16,1.16-.51,1.57-.34.39-.8.59-1.34.59h-6.18v-7.64h6.18c.54,0,1,.2,1.34.62ZM90.92,118.2h-4.53c-.59,0-1.04.2-1.4.62-.34.41-.5.94-.5,1.57v13.69c0,.62.16,1.14.5,1.56.36.43.81.65,1.4.65h4.53c.55,0,1-.22,1.35-.65.37-.42.54-.93.54-1.56v-13.69c0-.64-.18-1.16-.54-1.57-.35-.42-.81-.62-1.35-.62ZM68.29,118.2h-6.44v8.28h6.44c.54,0,1.01-.21,1.36-.62.35-.42.54-.93.54-1.58v-3.9c0-.65-.18-1.16-.54-1.57-.35-.42-.81-.62-1.36-.62ZM197.71,98.86c0,54.6-44.26,98.86-98.86,98.86S0,153.45,0,98.86,44.26,0,98.86,0s98.86,44.26,98.86,98.86ZM54.14,58.11l50.8-.03,7.79-12.33h-50.82l-7.77,12.36ZM51.6,130.39c0-1.54-.55-2.87-1.66-4-1.11-1.13-2.44-1.69-3.98-1.69h-5.69c-1.28,0-1.91-.7-1.91-2.1v-2.25c0-.64.16-1.16.52-1.58.34-.42.8-.63,1.39-.63h4.47c1.05,0,1.77.51,2.09,1.54l.62,2.17h4.09v-2.4c0-1.6-.52-2.91-1.6-3.98-1.09-1.06-2.42-1.59-3.97-1.59h-6.61c-1.56,0-2.91.55-4.03,1.66-1.09,1.1-1.64,2.43-1.64,3.98v3.85c0,1.57.55,2.91,1.64,4.03,1.12,1.11,2.48,1.66,4.03,1.66h5.7c1.26,0,1.89.73,1.89,2.16v2.92c0,.62-.17,1.16-.51,1.56-.36.43-.82.63-1.38.63h-4.53c-1.14,0-1.84-.52-2.11-1.53l-.61-2.46h-4.12v2.65c0,1.62.52,2.93,1.6,4,1.06,1.06,2.4,1.6,3.99,1.6h6.7c1.55,0,2.9-.56,4.01-1.67,1.09-1.09,1.63-2.44,1.63-4.02v-4.52ZM74.91,119.52c0-1.54-.56-2.87-1.66-3.96-1.13-1.11-2.48-1.66-4.05-1.66h-12.07v26.7h4.72v-9.8h7.36c1.56,0,2.92-.56,4.05-1.66,1.1-1.1,1.66-2.44,1.66-4v-5.61ZM97.53,119.52c0-1.55-.54-2.9-1.67-3.98-1.12-1.09-2.43-1.65-4.02-1.65h-6.38c-1.59,0-2.93.55-4.04,1.66-1.1,1.09-1.67,2.43-1.67,3.96v15.35c0,1.62.56,2.97,1.67,4.06,1.11,1.11,2.46,1.67,4.04,1.67h6.38c1.59,0,2.9-.56,4.02-1.67,1.14-1.09,1.67-2.44,1.67-4.06v-15.35ZM123.12,68.76l8.86,14.04h-7.62l-7.82,12.38h23.24l7.81,12.35h14.84l-39.32-62.21-31.59,49.87h-34.55l7.93-12.37h21.46l7.82-12.36h-47.86l-7.82,12.36h11.49l-15.65,24.73h64.36s24.41-38.79,24.41-38.79ZM121.85,140.6l-4.68-11.03c1.03-.45,1.91-1.14,2.6-2.1.66-.97,1-2.08,1-3.29v-4.66c0-1.53-.56-2.87-1.66-3.96-1.1-1.11-2.44-1.66-4.02-1.66h-11.8v26.7h4.72v-10.45h4.48l4.35,10.45h5.02ZM142.11,113.89h-18.36v4.31h6.79v22.39h4.73v-22.39h6.85v-4.31ZM163.51,130.39c0-1.54-.55-2.87-1.7-4-1.1-1.13-2.43-1.69-3.99-1.69h-5.68c-1.26,0-1.91-.7-1.91-2.1v-2.25c0-.64.18-1.16.52-1.58.34-.42.81-.63,1.39-.63h4.48c1.05,0,1.75.51,2.08,1.54l.62,2.17h4.1v-2.4c0-1.6-.54-2.91-1.62-3.98-1.09-1.06-2.4-1.59-3.99-1.59h-6.59c-1.57,0-2.92.55-4.01,1.66-1.1,1.1-1.67,2.43-1.67,3.98v3.85c0,1.57.57,2.91,1.67,4.03,1.09,1.11,2.44,1.66,4.01,1.66h5.69c1.27,0,1.9.73,1.9,2.16v2.92c0,.62-.17,1.16-.5,1.56-.35.43-.82.63-1.39.63h-4.53c-1.14,0-1.83-.52-2.12-1.53l-.62-2.46h-4.11v2.65c0,1.62.54,2.93,1.6,4,1.08,1.06,2.4,1.6,3.99,1.6h6.68c1.58,0,2.92-.56,4.04-1.67,1.1-1.09,1.65-2.44,1.65-4.02v-4.52ZM166.39,114.77h-2.52v.44h1v2.14h.51v-2.14h1v-.44ZM169.86,117.36v-2.58h-.39l-1.02,1.56-1.01-1.56h-.43v2.58h.43v-1.6c0-.09-.05-.18-.05-.28.05.09.11.19.16.26l.84,1.29h.08l.82-1.27c.07-.09.08-.18.12-.28-.01.13-.01.21-.01.28v1.6h.47Z" fill="#151616"/>
    <g id="FC26_IQ">
      <path d="M363.99,82.99l-20.33,35.08h-71.9s-31.53,54.58-31.53,54.58h-40.7s76.16-131.49,76.16-131.49c6.34-10.97,15.97-17.71,30.92-17.71h91.69l-20.13,34.87h-71.69l-14.39,24.68h71.9ZM349.83,172.64h88.94l31.62-54.69h-40.24s-11.51,19.89-11.51,19.89h-31.63l46-79.56h31.63s-14.23,24.76-14.23,24.76h40.18s34.43-59.6,34.43-59.6h-91.7c-15.07,0-24.38,6.79-30.71,17.74l-64.39,111.36c-5.16,8.93,1.29,20.1,11.62,20.1ZM605.92,58.27l-14.22,24.68h-51.6c-15.17,0-24.38,6.92-30.72,17.88l-41.53,71.82h112.17l20.13-34.82h-71.89s11.5-19.89,11.5-19.89h71.89s43.14-74.6,43.14-74.6c5.75-9.95.11-19.88-11.5-19.89h-68.67c-15.26-.08-24.47,6.63-30.72,17.71l-18.52,32.03h40.26s8.63-14.92,8.63-14.92h31.66ZM682.8,172.64h-88.28l77.15-133.29c6.29-10.37,16.11-15.66,27.54-15.91h93.83l-20.14,34.85h-71.91l-14.28,24.76h49.72c10.35,0,15.89,10.66,11.1,18.94l-28.82,49.96c-7.41,12.8-21.09,20.69-35.91,20.69ZM666.47,117.96l-11.67,19.89h31.8s11.51-19.89,11.51-19.89h-31.64Z" fill="#151616"/>
    </g>
  </g>
  <g id="EA_Sports_Black">
    <path id="EA_Sports-2" d="M117.17,129.56c1.03-.45,1.91-1.14,2.6-2.1.66-.97,1-2.08,1-3.29v-4.66c0-1.53-.56-2.87-1.66-3.96-1.1-1.11-2.44-1.66-4.02-1.66h-11.8v26.7h4.72v-10.45h4.48l4.35,10.45h5.02l-4.68-11.03ZM116.03,123.69c0,.64-.16,1.16-.51,1.57-.34.39-.8.59-1.34.59h-6.18v-7.64h6.18c.54,0,1,.2,1.34.62.34.41.51.94.51,1.57v3.29ZM95.86,115.54c-1.12-1.09-2.43-1.65-4.02-1.65h-6.38c-1.59,0-2.93.55-4.04,1.66-1.1,1.09-1.67,2.43-1.67,3.96v15.35c0,1.62.56,2.97,1.67,4.06,1.11,1.11,2.46,1.67,4.04,1.67h6.38c1.59,0,2.9-.56,4.02-1.67,1.14-1.09,1.67-2.44,1.67-4.06v-15.35c0-1.55-.54-2.9-1.67-3.98ZM92.82,134.08c0,.62-.18,1.14-.54,1.56-.35.43-.81.65-1.35.65h-4.53c-.59,0-1.04-.22-1.4-.65-.34-.42-.5-.93-.5-1.56v-13.69c0-.64.16-1.16.5-1.57.36-.42.81-.62,1.4-.62h4.53c.55,0,1.01.2,1.35.62.37.41.54.94.54,1.57v13.69ZM73.25,115.56c-1.13-1.11-2.48-1.66-4.05-1.66h-12.07v26.7h4.72v-9.8h7.36c1.56,0,2.92-.56,4.05-1.66,1.1-1.1,1.66-2.44,1.66-4.01v-5.61c0-1.54-.56-2.87-1.66-3.96ZM70.19,124.29c0,.64-.18,1.16-.54,1.58-.35.41-.81.62-1.36.62h-6.44v-8.28h6.44c.54,0,1.01.2,1.36.62.35.41.54.92.54,1.57v3.9ZM61.91,45.75h50.82l-7.79,12.33-50.8.03,7.77-12.36ZM51.61,134.9c0,1.58-.55,2.93-1.63,4.02-1.1,1.11-2.46,1.67-4.01,1.67h-6.7c-1.59,0-2.92-.54-3.99-1.6-1.07-1.06-1.6-2.38-1.6-4v-2.65h4.12l.61,2.46c.27,1.01.97,1.53,2.11,1.53h4.53c.56,0,1.02-.2,1.38-.63.34-.41.51-.95.51-1.56v-2.92c0-1.43-.63-2.16-1.89-2.16h-5.7c-1.56,0-2.91-.54-4.03-1.66-1.09-1.11-1.64-2.45-1.64-4.03v-3.85c0-1.55.55-2.87,1.64-3.98,1.12-1.11,2.48-1.66,4.03-1.66h6.61c1.55,0,2.88.53,3.97,1.59,1.08,1.07,1.6,2.38,1.6,3.98v2.4h-4.09l-.62-2.17c-.32-1.03-1.04-1.54-2.09-1.54h-4.47c-.58,0-1.04.21-1.39.63-.37.42-.52.94-.52,1.58v2.25c0,1.4.63,2.1,1.91,2.1h5.69c1.54,0,2.87.56,3.98,1.69,1.11,1.13,1.66,2.45,1.66,4v4.52ZM98.71,107.54H34.35s15.65-24.72,15.65-24.72h-11.49l7.82-12.36h47.86l-7.82,12.36h-21.46l-7.93,12.37h34.55l31.59-49.87,39.32,62.21h-14.84l-7.81-12.35h-23.24l7.82-12.38h7.62l-8.86-14.04-24.41,38.78ZM142.11,118.2h-6.85v22.39h-4.73v-22.39h-6.79v-4.31h18.36v4.31ZM163.51,134.9c0,1.58-.55,2.93-1.65,4.02-1.12,1.11-2.46,1.67-4.04,1.67h-6.68c-1.6,0-2.91-.54-3.99-1.6-1.06-1.06-1.6-2.38-1.6-4v-2.65h4.11l.62,2.46c.29,1.01.98,1.53,2.12,1.53h4.53c.57,0,1.05-.2,1.39-.63.34-.41.5-.95.5-1.56v-2.92c0-1.43-.62-2.16-1.9-2.16h-5.69c-1.57,0-2.92-.54-4.01-1.66-1.1-1.11-1.67-2.45-1.67-4.03v-3.85c0-1.55.57-2.87,1.67-3.98,1.09-1.11,2.44-1.66,4.01-1.66h6.59c1.58,0,2.9.53,3.99,1.59,1.07,1.07,1.62,2.38,1.62,3.98v2.4h-4.1l-.62-2.17c-.33-1.03-1.03-1.54-2.08-1.54h-4.48c-.57,0-1.05.21-1.39.63-.34.42-.52.94-.52,1.58v2.25c0,1.4.64,2.1,1.91,2.1h5.68c1.56,0,2.89.56,3.99,1.69,1.15,1.13,1.7,2.45,1.7,4v4.52ZM166.39,115.21h-1v2.14h-.51v-2.14h-1v-.44h2.52v.44ZM169.39,117.36v-1.6c0-.07,0-.15.01-.28-.05.1-.06.19-.12.28l-.82,1.27h-.08l-.84-1.29c-.04-.07-.1-.17-.16-.26,0,.1.05.19.05.28v1.6h-.43v-2.58h.43l1.01,1.56,1.02-1.56h.39v2.58h-.47Z" fill="#ffff"/>
  </g>
</svg>